HIERARCHY
ROOT Pelvis
{
	OFFSET 0.000000 0.941512 0.000000
	CHANNELS 6 Xposition Yposition Zposition Zrotation Yrotation Xrotation 
	JOINT Pelvis_L_Hip
	{
		OFFSET 0.000000 0.000000 0.000000
		CHANNELS 3 Zrotation Yrotation Xrotation
		JOINT L_Hip
		{
			OFFSET 0.062321 -0.080322 -0.016990
			CHANNELS 3 Zrotation Yrotation Xrotation
			JOINT L_Knee
			{
				OFFSET 0.093051 -0.381305 -0.029784
				CHANNELS 3 Zrotation Yrotation Xrotation
				JOINT L_Ankle
				{
					OFFSET -0.010371 -0.431000 -0.033614
					CHANNELS 3 Zrotation Yrotation Xrotation
					End Site #name: L_Foot
					{
						OFFSET 0.069299 -0.038670 0.119418
					}
				}
			}
		}
	}
	JOINT Pelvis_R_Hip
	{
		OFFSET 0.000000 0.000000 0.000000
		CHANNELS 3 Zrotation Yrotation Xrotation
		JOINT R_Hip
		{
			OFFSET -0.055334 -0.094904 -0.002373
			CHANNELS 3 Zrotation Yrotation Xrotation
			JOINT R_Knee
			{
				OFFSET -0.064207 -0.384370 -0.019592
				CHANNELS 3 Zrotation Yrotation Xrotation
				JOINT R_Ankle
				{
					OFFSET 0.025418 -0.419734 -0.065953
					CHANNELS 3 Zrotation Yrotation Xrotation
					End Site #name: R_Foot
					{
						OFFSET -0.057233 -0.039888 0.132134
					}
				}
			}
		}
	}
	JOINT Pelvis_Spine1
	{
		OFFSET 0.000000 0.000000 0.000000
		CHANNELS 3 Zrotation Yrotation Xrotation
		JOINT Spine1
		{
			OFFSET -0.005562 0.124093 -0.043360
			CHANNELS 3 Zrotation Yrotation Xrotation
			JOINT Spine2
			{
				OFFSET 0.012244 0.139499 0.029894
				CHANNELS 3 Zrotation Yrotation Xrotation
				JOINT Spine3
				{
					OFFSET -0.002556 0.056561 0.009225
					CHANNELS 3 Zrotation Yrotation Xrotation
					JOINT Spine3_Neck
					{
						OFFSET 0.000000 0.000000 0.000000
						CHANNELS 3 Zrotation Yrotation Xrotation
						JOINT Neck
						{
							OFFSET -0.005205 0.217920 -0.024551
							CHANNELS 3 Zrotation Yrotation Xrotation
							End Site #name: Head
							{
								OFFSET 0.002365 0.091850 0.046637
							}
						}
					}
					JOINT Spine3_L_Collar
					{
						OFFSET 0.000000 0.000000 0.000000
						CHANNELS 3 Zrotation Yrotation Xrotation
						JOINT L_Collar
						{
							OFFSET 0.072225 0.116603 -0.009480
							CHANNELS 3 Zrotation Yrotation Xrotation
							JOINT L_Shoulder
							{
								OFFSET 0.115937 -0.058643 -0.021018
								CHANNELS 3 Zrotation Yrotation Xrotation
								JOINT L_Elbow
								{
									OFFSET 0.021994 -0.254722 -0.024492
									CHANNELS 3 Zrotation Yrotation Xrotation
									End Site #name: L_Wrist
									{
										OFFSET 0.048810 -0.240214 0.103329
									}
								}
							}
						}
					}
					JOINT Spine3_R_Collar
					{
						OFFSET 0.000000 0.000000 0.000000
						CHANNELS 3 Zrotation Yrotation Xrotation
						JOINT R_Collar
						{
							OFFSET -0.073372 0.120704 -0.024611
							CHANNELS 3 Zrotation Yrotation Xrotation
							JOINT R_Shoulder
							{
								OFFSET -0.108089 -0.054969 -0.020504
								CHANNELS 3 Zrotation Yrotation Xrotation
								JOINT R_Elbow
								{
									OFFSET -0.033684 -0.260739 0.009889
									CHANNELS 3 Zrotation Yrotation Xrotation
									End Site #name: R_Wrist
									{
										OFFSET -0.067980 -0.232763 0.118463
									}
								}
							}
						}
					}
				}
			}
		}
	}
}
MOTION
Frames: 5
Frame Time: 0.041667
0.000000 0.944445 0.000000 -2.231970 -9.176565 -2.038502 0.000000 0.000000 0.000000 -12.616362 -3.469559 -12.417056 4.630002 -1.365264 18.769536 0.536169 -4.978793 -3.761841 0.000000 0.000000 0.000000 0.950065 1.540631 -8.987570 6.935051 1.863638 61.895279 11.428281 4.929996 19.279813 0.000000 0.000000 0.000000 3.345844 -0.115230 -5.455275 -4.706625 0.859206 1.152829 1.566695 4.997728 8.707540 0.000000 0.000000 0.000000 -10.275527 7.742580 20.638572 0.000000 0.000000 0.000000 26.795737 -4.716623 1.206025 -29.706678 0.670737 -7.689633 0.600529 0.914712 3.381971 0.000000 0.000000 0.000000 -36.527170 19.383692 -11.122829 33.912199 -4.370703 11.536925 0.607966 -0.096113 1.365526 
-0.005792 0.953957 0.056265 -3.450045 -7.003485 -2.626845 0.000000 0.000000 0.000000 -11.857373 -1.329119 -6.258035 5.817679 -1.523523 15.361026 0.129741 -8.948196 -4.870854 0.000000 0.000000 0.000000 2.643724 2.844708 -15.170812 5.466108 2.337959 62.703718 7.635174 2.993497 13.799558 0.000000 0.000000 0.000000 4.687639 -0.376330 -4.950801 -3.953678 0.673725 0.445755 1.247134 3.376838 9.016067 0.000000 0.000000 0.000000 -9.172517 7.053965 22.516921 0.000000 0.000000 0.000000 27.644113 -6.720299 -0.333064 -31.142885 -0.508697 -11.099091 -0.633522 -0.615056 -1.619824 0.000000 0.000000 0.000000 -35.080234 15.569789 -7.074338 36.801180 -5.776622 13.828507 1.119927 -0.288071 2.851045 
-0.012426 0.960348 0.110621 -4.595979 -5.075408 -2.723564 0.000000 0.000000 0.000000 -10.284607 0.514518 -0.752606 6.480444 -1.437978 11.752260 -0.434500 -12.895004 -5.555574 0.000000 0.000000 0.000000 4.548853 4.188460 -20.485900 2.168130 3.774066 57.216086 5.102885 2.239456 9.343120 0.000000 0.000000 0.000000 5.736191 -0.536798 -4.956168 -3.228866 0.519479 -0.035369 1.180489 1.766413 9.116823 0.000000 0.000000 0.000000 -8.293931 6.485719 24.003836 0.000000 0.000000 0.000000 29.195944 -8.620020 -1.825414 -31.987303 -1.782664 -14.493865 -1.783281 -2.181874 -6.190360 0.000000 0.000000 0.000000 -34.565629 12.132964 -3.553049 38.573642 -7.567679 16.913238 2.103187 0.231270 2.695762 
-0.020052 0.960876 0.164071 -5.555932 -3.666460 -2.699647 0.000000 0.000000 0.000000 -8.325639 2.074956 4.453760 6.578765 -1.192323 8.248572 -0.875570 -16.100966 -6.065007 0.000000 0.000000 0.000000 6.373340 5.213073 -23.796244 -1.988559 4.853991 45.159234 4.542748 2.564686 7.965560 0.000000 0.000000 0.000000 6.336519 -0.594028 -5.201321 -2.564327 0.431805 0.243250 1.475372 0.489883 9.111109 0.000000 0.000000 0.000000 -7.623500 6.008229 24.733012 0.000000 0.000000 0.000000 31.022161 -10.328019 -3.254983 -31.921248 -3.121435 -18.021047 -2.493907 -3.555929 -10.305798 0.000000 0.000000 0.000000 -34.535686 9.770922 -1.141507 39.538525 -9.151298 19.652822 2.744276 0.466462 2.930543 
-0.027558 0.955709 0.217876 -6.076385 -3.019773 -2.090227 0.000000 0.000000 0.000000 -6.689561 3.228000 8.742784 6.327514 -0.937647 5.465777 -1.049843 -18.285329 -6.585822 0.000000 0.000000 0.000000 7.208549 5.679642 -25.197593 -4.596925 3.844196 27.372825 6.110768 3.586717 10.388182 0.000000 0.000000 0.000000 6.570692 -0.491799 -6.184363 -2.069017 0.393959 0.923212 1.961851 -0.319230 9.020853 0.000000 0.000000 0.000000 -7.186693 5.740665 25.297051 0.000000 0.000000 0.000000 32.521866 -11.205539 -4.064808 -31.270034 -4.318153 -21.294175 -2.385753 -4.405720 -13.874009 0.000000 0.000000 0.000000 -34.412438 8.129221 0.563934 39.715889 -10.247947 21.659325 2.744000 0.254064 3.600518 
